<?xml version="1.0" standalone="no"?>
<!DOCTYPE svg PUBLIC "-//W3C//DTD SVG 20010904//EN"
 "http://www.w3.org/TR/2001/REC-SVG-20010904/DTD/svg10.dtd">
<svg version="1.0" xmlns="http://www.w3.org/2000/svg"
  width="124" height="124" viewBox="0 0 902.000000 980.000000"
 preserveAspectRatio="xMidYMid meet">

<g transform="translate(0.000000,980.000000) scale(0.100000,-0.100000)"
fill="#000000" stroke="none">
<path d="M3030 9783 c-38 -20 -2876 -2043 -2949 -2101 -24 -20 -52 -54 -62
-76 -18 -40 -19 -139 -19 -2941 0 -1993 3 -2912 11 -2938 5 -21 24 -51 42 -69
18 -17 698 -395 1512 -842 1457 -798 1481 -811 1535 -810 48 0 210 59 1310
478 690 263 1365 520 1500 571 135 51 567 215 960 365 393 150 1017 387 1385
527 369 140 684 265 702 279 68 52 64 -83 61 1884 -3 1754 -3 1775 -23 1809
-11 19 -31 42 -45 53 -14 10 -289 99 -610 198 -322 99 -669 206 -772 237
l-187 58 -3 590 c-3 635 -2 619 -55 667 -11 10 -952 480 -2093 1044 -1637 811
-2083 1028 -2119 1031 -32 3 -57 -1 -81 -14z m957 -1149 c263 -114 486 -213
496 -222 16 -14 17 -57 17 -633 l0 -619 -24 -15 c-22 -15 -51 -7 -511 135
-269 82 -497 157 -507 166 -17 16 -18 50 -18 686 0 655 0 668 20 688 11 11 26
20 34 20 8 0 230 -93 493 -206z m-1315 69 c17 -15 18 -49 18 -673 0 -613 -1
-658 -17 -672 -20 -17 -652 -298 -671 -298 -7 0 -21 9 -32 20 -20 20 -20 33
-20 613 0 459 3 597 13 610 18 25 649 417 671 417 11 0 28 -7 38 -17z m2938
-770 c184 -80 341 -152 348 -161 9 -12 12 -134 12 -531 0 -284 -4 -521 -8
-527 -25 -38 -39 -35 -402 76 -194 60 -357 115 -361 122 -5 7 -9 268 -9 580
l0 567 22 15 c13 9 31 13 43 10 11 -4 171 -72 355 -151z m-4086 45 c14 -20 16
-90 16 -563 0 -417 -3 -545 -12 -558 -7 -9 -120 -64 -250 -122 -195 -86 -242
-103 -261 -96 -14 5 -27 17 -31 26 -9 25 -7 1018 3 1033 16 27 466 301 493
301 17 1 33 -7 42 -21z m5227 -537 c139 -60 260 -116 270 -125 18 -15 19 -40
19 -470 0 -494 1 -486 -55 -486 -37 0 -518 150 -537 168 -17 14 -18 51 -18
500 0 438 2 487 17 504 9 10 24 18 34 18 10 0 131 -49 270 -109z m-6061 29
c19 -19 20 -33 20 -493 0 -363 -3 -477 -12 -489 -17 -22 -348 -168 -380 -168
-13 0 -29 5 -36 12 -9 9 -12 125 -12 463 0 247 4 455 8 461 10 17 363 234 379
234 7 0 22 -9 33 -20z m3313 -1326 c260 -47 478 -90 485 -96 9 -8 12 -147 12
-633 0 -557 -2 -624 -16 -636 -13 -11 -97 -8 -497 14 -265 15 -488 28 -494 27
-7 0 -22 9 -33 20 -20 20 -20 33 -20 687 0 736 -3 703 62 703 16 0 241 -39
501 -86z m-1325 23 c18 -14 18 -1315 -1 -1341 -11 -16 -53 -21 -298 -42 -390
-32 -398 -33 -415 -9 -21 28 -21 1192 0 1221 11 14 95 40 343 105 180 47 335
84 343 81 8 -3 21 -9 28 -15z m2905 -311 c253 -46 353 -68 367 -81 19 -18 20
-34 20 -539 0 -287 -4 -526 -8 -532 -20 -31 -49 -31 -392 -7 -271 20 -349 28
-362 41 -17 14 -18 55 -18 583 l0 568 22 15 c12 9 23 16 23 16 0 0 157 -29
348 -64z m-4061 7 c17 -15 18 -46 18 -563 0 -507 -1 -549 -17 -568 -16 -19
-39 -23 -213 -37 -107 -8 -216 -18 -242 -21 -38 -5 -50 -2 -67 15 -21 21 -21
28 -21 529 0 494 1 509 20 527 19 17 431 133 479 134 14 1 33 -6 43 -16z
m5232 -219 c204 -37 254 -49 269 -66 16 -19 17 -56 17 -469 0 -441 0 -449 -21
-470 -18 -18 -29 -20 -92 -15 -40 3 -160 11 -267 17 -152 8 -199 14 -212 26
-17 15 -18 52 -18 504 0 527 -1 519 52 519 12 0 134 -21 272 -46z m-6054 -3
c6 -13 10 -187 10 -495 l0 -476 -22 -14 c-14 -8 -78 -18 -158 -25 -173 -14
-233 -14 -248 1 -9 9 -12 126 -12 464 0 398 2 453 16 465 21 17 319 97 366 98
27 1 40 -4 48 -18z m7115 -192 c93 -17 180 -37 193 -45 l22 -14 0 -398 c0
-296 -3 -401 -12 -410 -14 -14 -117 -15 -303 -2 -105 7 -132 12 -142 26 -18
25 -19 844 -1 862 18 18 56 15 243 -19z m645 -120 c88 -13 152 -28 163 -37 16
-14 17 -45 17 -372 0 -340 -1 -358 -19 -374 -18 -17 -33 -17 -181 -7 -129 8
-166 13 -181 27 -18 16 -19 37 -19 382 0 326 2 367 17 384 20 23 28 23 203 -3z
m158 -1365 l22 -15 0 -359 c0 -399 3 -383 -68 -396 -20 -3 -90 -17 -156 -30
-143 -29 -131 -29 -156 -4 -19 19 -20 33 -20 388 0 299 3 372 14 387 12 16 36
21 167 31 85 6 159 12 164 13 6 0 21 -6 33 -15z m-600 -46 c9 -9 12 -113 12
-408 0 -365 -1 -398 -17 -412 -11 -9 -100 -32 -215 -54 -192 -37 -198 -37
-218 -19 -20 18 -20 28 -20 435 0 385 1 418 18 433 29 27 416 49 440 25z
m-7346 -77 c4 -1 14 -8 22 -17 14 -14 16 -72 16 -491 0 -429 -2 -478 -17 -495
-9 -10 -23 -18 -31 -18 -29 0 -347 91 -370 106 l-22 15 2 457 c3 456 3 456 25
467 15 8 68 6 195 -6 95 -10 176 -18 180 -18z m6110 -8 c17 -15 18 -64 18
-1158 0 -1078 -1 -1143 -18 -1158 -16 -15 -852 -337 -875 -337 -6 0 -19 7 -29
17 -17 15 -18 69 -18 1293 0 1162 1 1279 16 1291 11 9 127 21 393 40 470 33
489 34 513 12z m-5478 -53 c151 -15 204 -24 218 -36 17 -16 18 -46 18 -563 0
-479 -2 -549 -16 -569 -8 -12 -23 -22 -32 -22 -38 0 -474 129 -492 145 -19 18
-20 34 -20 524 0 278 4 511 8 517 14 21 46 32 81 28 20 -3 126 -13 235 -24z
m3976 -50 c20 -20 20 -33 20 -1393 0 -1308 -1 -1375 -18 -1390 -16 -14 -1216
-478 -1277 -493 -16 -4 -30 1 -44 15 l-21 21 0 1569 c0 1625 -1 1582 33 1602
3 2 1209 86 1250 88 25 1 43 -5 57 -19z m-2938 -51 c238 -23 317 -34 331 -46
16 -15 17 -60 17 -670 0 -422 -4 -661 -10 -673 -15 -28 -66 -34 -145 -16 -116
26 -544 169 -565 188 -19 18 -20 35 -20 611 0 646 -1 637 55 637 14 0 166 -14
337 -31z"/>
</g>
</svg>
