<svg width="38" height="38" viewBox="0 0 38 38" fill="none" xmlns="http://www.w3.org/2000/svg">
<path d="M38 19C38 29.4934 29.4934 38 19 38C8.50659 38 0 29.4934 0 19C0 8.50659 8.50659 0 19 0C29.4934 0 38 8.50659 38 19ZM20.1875 10.6875C20.1875 10.0317 19.6558 9.5 19 9.5C18.3442 9.5 17.8125 10.0317 17.8125 10.6875V17.8125H10.6875C10.0317 17.8125 9.5 18.3442 9.5 19C9.5 19.6558 10.0317 20.1875 10.6875 20.1875H17.8125V27.3125C17.8125 27.9683 18.3442 28.5 19 28.5C19.6558 28.5 20.1875 27.9683 20.1875 27.3125V20.1875H27.3125C27.9683 20.1875 28.5 19.6558 28.5 19C28.5 18.3442 27.9683 17.8125 27.3125 17.8125H20.1875V10.6875Z" fill="#0157F5"/>
</svg>
