<?xml version="1.0" standalone="no"?>
<!DOCTYPE svg PUBLIC "-//W3C//DTD SVG 20010904//EN"
 "http://www.w3.org/TR/2001/REC-SVG-20010904/DTD/svg10.dtd">
<svg version="1.0" xmlns="http://www.w3.org/2000/svg"
 width="124" height="124"  viewBox="0 0 626.000000 626.000000"
 preserveAspectRatio="xMidYMid meet">

<g transform="translate(0.000000,626.000000) scale(0.100000,-0.100000)"
fill="#000000" stroke="none">
<path d="M2910 6240 c-304 -52 -510 -142 -750 -325 -116 -89 -285 -280 -363
-410 -327 -548 -293 -1233 87 -1739 356 -475 944 -708 1518 -601 137 25 269
65 363 110 30 14 56 25 58 25 3 0 45 24 94 53 144 85 242 166 385 318 34 36
135 176 169 234 268 457 287 1030 50 1491 -55 108 -66 125 -142 229 -204 278
-541 505 -864 582 -228 54 -420 65 -605 33z"/>
<path d="M1800 3328 c-237 -147 -333 -223 -515 -403 -226 -224 -374 -432 -508
-715 -122 -255 -202 -508 -253 -792 l-17 -97 36 -44 c55 -67 244 -265 327
-343 176 -164 440 -367 585 -450 256 -146 375 -204 595 -288 177 -67 448 -134
650 -160 69 -9 158 -21 198 -26 282 -38 805 23 1164 136 211 65 499 194 670
297 42 26 79 47 82 47 7 0 191 126 261 179 217 164 490 422 642 608 l35 42
-22 123 c-67 386 -220 774 -429 1093 -116 177 -379 464 -541 589 -69 53 -239
168 -306 206 l-40 23 -70 -68 c-287 -282 -624 -446 -1004 -489 -170 -20 -250
-20 -420 -1 -379 44 -720 210 -1007 492 -36 34 -68 63 -71 63 -4 0 -23 -10
-42 -22z"/>
</g>
</svg>
