<svg width="38" height="38" viewBox="0 0 38 38" fill="none" xmlns="http://www.w3.org/2000/svg">
<circle cx="19" cy="19" r="19" fill="#0157F5"/>
<path d="M6 10.0625C6 9.61377 6.36377 9.25 6.8125 9.25H9.25C9.62283 9.25 9.94782 9.50374 10.0382 9.86544L10.6969 12.5H29.5625C29.8127 12.5 30.0489 12.6153 30.2029 12.8125C30.3569 13.0097 30.4114 13.2668 30.3507 13.5096L27.9132 23.2596C27.8228 23.6213 27.4978 23.875 27.125 23.875H12.5C12.1272 23.875 11.8022 23.6213 11.7118 23.2596L8.61562 10.875H6.8125C6.36377 10.875 6 10.5112 6 10.0625ZM11.1031 14.125L11.9156 17.375H14.125V14.125H11.1031ZM15.75 14.125V17.375H19V14.125H15.75ZM20.625 14.125V17.375H23.875V14.125H20.625ZM25.5 14.125V17.375H27.7094L28.5219 14.125H25.5ZM27.3031 19H25.5V22.25H26.4906L27.3031 19ZM23.875 19H20.625V22.25H23.875V19ZM19 19H15.75V22.25H19V19ZM14.125 19H12.3219L13.1344 22.25H14.125V19ZM14.125 27.125C13.2275 27.125 12.5 27.8525 12.5 28.75C12.5 29.6475 13.2275 30.375 14.125 30.375C15.0225 30.375 15.75 29.6475 15.75 28.75C15.75 27.8525 15.0225 27.125 14.125 27.125ZM10.875 28.75C10.875 26.9551 12.3301 25.5 14.125 25.5C15.9199 25.5 17.375 26.9551 17.375 28.75C17.375 30.5449 15.9199 32 14.125 32C12.3301 32 10.875 30.5449 10.875 28.75ZM25.5 27.125C24.6025 27.125 23.875 27.8525 23.875 28.75C23.875 29.6475 24.6025 30.375 25.5 30.375C26.3975 30.375 27.125 29.6475 27.125 28.75C27.125 27.8525 26.3975 27.125 25.5 27.125ZM22.25 28.75C22.25 26.9551 23.7051 25.5 25.5 25.5C27.2949 25.5 28.75 26.9551 28.75 28.75C28.75 30.5449 27.2949 32 25.5 32C23.7051 32 22.25 30.5449 22.25 28.75Z" fill="white"/>
</svg>
