<svg width="20" height="20" viewBox="0 0 20 20" fill="none" xmlns="http://www.w3.org/2000/svg">
<path d="M1.05727 1.05721C1.57797 0.536512 2.42219 0.536512 2.94289 1.05721L10.0001 8.1144L17.0573 1.05721C17.578 0.536512 18.4222 0.536512 18.9429 1.05721C19.4636 1.57791 19.4636 2.42213 18.9429 2.94283L11.8857 10L18.9429 17.0572C19.4636 17.5779 19.4636 18.4221 18.9429 18.9428C18.4222 19.4635 17.578 19.4635 17.0573 18.9428L10.0001 11.8856L2.94289 18.9428C2.42219 19.4635 1.57797 19.4635 1.05727 18.9428C0.536573 18.4221 0.536573 17.5779 1.05727 17.0572L8.11446 10L1.05727 2.94283C0.536573 2.42213 0.536573 1.57791 1.05727 1.05721Z" fill="black"/>
</svg>
