<svg width="34" height="34" viewBox="0 0 34 34" fill="none" xmlns="http://www.w3.org/2000/svg">
<path d="M5.66659 29.75C4.88742 29.75 4.2204 29.4726 3.66554 28.9177C3.11068 28.3628 2.83325 27.6958 2.83325 26.9167V7.08333C2.83325 6.30417 3.11068 5.63715 3.66554 5.08229C4.2204 4.52743 4.88742 4.25 5.66659 4.25H28.3333C29.1124 4.25 29.7794 4.52743 30.3343 5.08229C30.8892 5.63715 31.1666 6.30417 31.1666 7.08333V26.9167C31.1666 27.6958 30.8892 28.3628 30.3343 28.9177C29.7794 29.4726 29.1124 29.75 28.3333 29.75H5.66659ZM5.66659 26.9167H28.3333V7.08333H5.66659V26.9167ZM7.08325 24.0833H14.1666V21.25H7.08325V24.0833ZM20.6124 21.25L27.6249 14.2375L25.6062 12.2188L20.6124 17.2479L18.5937 15.2292L16.6103 17.2479L20.6124 21.25ZM7.08325 18.4167H14.1666V15.5833H7.08325V18.4167ZM7.08325 12.75H14.1666V9.91667H7.08325V12.75Z" fill="white"/>
</svg>
