<svg width="34" height="34" viewBox="0 0 34 34" fill="none" xmlns="http://www.w3.org/2000/svg">
<path d="M2.83325 22.6667V19.8333H5.66659V22.6667H2.83325ZM2.83325 17V14.1667H5.66659V17H2.83325ZM2.83325 11.3333V8.5H5.66659V11.3333H2.83325ZM8.49992 22.6667V19.8333H14.1666V22.6667H8.49992ZM8.49992 17V14.1667H26.9166V17H8.49992ZM8.49992 11.3333V8.5H26.9166V11.3333H8.49992Z" fill="white"/>
<path d="M19.5937 25.75V24.8542C19.2256 24.7708 18.9079 24.6111 18.6405 24.375C18.3732 24.1389 18.177 23.8056 18.052 23.375L18.8228 23.0625C18.927 23.3958 19.0815 23.6493 19.2864 23.8229C19.4912 23.9965 19.7603 24.0833 20.0937 24.0833C20.3784 24.0833 20.6197 24.0191 20.8176 23.8906C21.0155 23.7622 21.1145 23.5625 21.1145 23.2917C21.1145 23.0486 21.0381 22.8559 20.8853 22.7135C20.7326 22.5712 20.3784 22.4097 19.8228 22.2292C19.2256 22.0417 18.8159 21.8177 18.5937 21.5573C18.3714 21.2969 18.2603 20.9792 18.2603 20.6042C18.2603 20.1528 18.4062 19.8021 18.6978 19.5521C18.9895 19.3021 19.2881 19.1597 19.5937 19.125V18.25H20.427V19.125C20.7742 19.1806 21.0607 19.3073 21.2864 19.5052C21.5121 19.7031 21.677 19.9444 21.7812 20.2292L21.0103 20.5625C20.927 20.3403 20.8089 20.1736 20.6562 20.0625C20.5034 19.9514 20.2951 19.8958 20.0312 19.8958C19.7256 19.8958 19.493 19.9635 19.3333 20.099C19.1735 20.2344 19.0937 20.4028 19.0937 20.6042C19.0937 20.8333 19.1978 21.0139 19.4062 21.1458C19.6145 21.2778 19.9756 21.4167 20.4895 21.5625C20.9687 21.7014 21.3315 21.9219 21.578 22.224C21.8246 22.526 21.9478 22.875 21.9478 23.2708C21.9478 23.7639 21.802 24.1389 21.5103 24.3958C21.2187 24.6528 20.8576 24.8125 20.427 24.875V25.75H19.5937Z" fill="white"/>
</svg>
