<svg width="34" height="34" viewBox="0 0 34 34" fill="none" xmlns="http://www.w3.org/2000/svg">
<path d="M8.5 31.1666C7.31944 31.1666 6.31597 30.7535 5.48958 29.9271C4.66319 29.1007 4.25 28.0972 4.25 26.9166V22.6666H8.5V2.83331H29.75V26.9166C29.75 28.0972 29.3368 29.1007 28.5104 29.9271C27.684 30.7535 26.6806 31.1666 25.5 31.1666H8.5ZM25.5 28.3333C25.9014 28.3333 26.2378 28.1975 26.5094 27.926C26.7809 27.6545 26.9167 27.318 26.9167 26.9166V5.66665H11.3333V22.6666H24.0833V26.9166C24.0833 27.318 24.2191 27.6545 24.4906 27.926C24.7622 28.1975 25.0986 28.3333 25.5 28.3333ZM12.75 12.75V9.91665H25.5V12.75H12.75ZM12.75 17V14.1666H25.5V17H12.75ZM8.5 28.3333H21.25V25.5H7.08333V26.9166C7.08333 27.318 7.2191 27.6545 7.49062 27.926C7.76215 28.1975 8.09861 28.3333 8.5 28.3333ZM8.5 28.3333H7.08333H21.25H8.5Z" fill="white"/>
</svg>
