<svg width="34" height="34" viewBox="0 0 34 34" fill="none" xmlns="http://www.w3.org/2000/svg">
<path fill-rule="evenodd" clip-rule="evenodd" d="M12.75 26.5625C12.75 27.1493 13.2257 27.625 13.8125 27.625L30.8125 27.625C31.3993 27.625 31.875 27.1493 31.875 26.5625L31.875 7.4375C31.875 6.8507 31.3993 6.375 30.8125 6.375L13.8125 6.375C13.2257 6.375 12.75 6.8507 12.75 7.4375L12.75 11.6875C12.75 12.2743 12.2743 12.75 11.6875 12.75C11.1007 12.75 10.625 12.2743 10.625 11.6875L10.625 7.4375C10.625 5.67709 12.0521 4.25 13.8125 4.25L30.8125 4.25C32.5729 4.25 34 5.67709 34 7.4375L34 26.5625C34 28.3229 32.5729 29.75 30.8125 29.75L13.8125 29.75C12.0521 29.75 10.625 28.3229 10.625 26.5625L10.625 22.3125C10.625 21.7257 11.1007 21.25 11.6875 21.25C12.2743 21.25 12.75 21.7257 12.75 22.3125L12.75 26.5625Z" fill="white"/>
<path fill-rule="evenodd" clip-rule="evenodd" d="M0.311199 17.7513C-0.103733 17.3364 -0.103733 16.6636 0.311199 16.2487L6.6862 9.8737C7.10113 9.45877 7.77387 9.45877 8.1888 9.8737C8.60373 10.2886 8.60373 10.9614 8.1888 11.3763L3.6276 15.9375L22.3125 15.9375C22.8993 15.9375 23.375 16.4132 23.375 17C23.375 17.5868 22.8993 18.0625 22.3125 18.0625L3.6276 18.0625L8.1888 22.6237C8.60373 23.0386 8.60373 23.7114 8.1888 24.1263C7.77387 24.5412 7.10113 24.5412 6.6862 24.1263L0.311199 17.7513Z" fill="white"/>
</svg>
