<svg width="34" height="34" viewBox="0 0 34 34" fill="none" xmlns="http://www.w3.org/2000/svg">
<path d="M20.1874 30.3166C19.6444 30.8597 18.9714 31.1312 18.1687 31.1312C17.3659 31.1312 16.693 30.8597 16.1499 30.3166L3.68325 17.85C3.42353 17.5903 3.21693 17.2833 3.06346 16.9291C2.90999 16.575 2.83325 16.1972 2.83325 15.7958V5.66665C2.83325 4.88748 3.11068 4.22047 3.66554 3.6656C4.2204 3.11074 4.88742 2.83331 5.66659 2.83331H15.7958C16.1971 2.83331 16.5749 2.91005 16.9291 3.06352C17.2833 3.21699 17.5902 3.42359 17.8499 3.68331L30.3166 16.1854C30.8596 16.7285 31.1312 17.3955 31.1312 18.1864C31.1312 18.9774 30.8596 19.6444 30.3166 20.1875L20.1874 30.3166ZM18.1687 28.3333L28.2978 18.2041L15.7958 5.66665H5.66659V15.7958L18.1687 28.3333ZM9.20825 11.3333C9.79853 11.3333 10.3003 11.1267 10.7135 10.7135C11.1267 10.3003 11.3333 9.79859 11.3333 9.20831C11.3333 8.61804 11.1267 8.1163 10.7135 7.7031C10.3003 7.28991 9.79853 7.08331 9.20825 7.08331C8.61797 7.08331 8.11624 7.28991 7.70304 7.7031C7.28985 8.1163 7.08325 8.61804 7.08325 9.20831C7.08325 9.79859 7.28985 10.3003 7.70304 10.7135C8.11624 11.1267 8.61797 11.3333 9.20825 11.3333Z" fill="white"/>
</svg>
