<svg width="52" height="52" viewBox="0 0 52 52" fill="none" xmlns="http://www.w3.org/2000/svg">
<circle cx="26" cy="26" r="26" fill="#0157F5"/>
<path d="M29.375 7C29.9963 7 30.5 7.50368 30.5 8.125C30.5 8.74632 31.0037 9.25 31.625 9.25C32.2463 9.25 32.75 9.75368 32.75 10.375V11.5C32.75 12.1213 32.2463 12.625 31.625 12.625H20.375C19.7537 12.625 19.25 12.1213 19.25 11.5V10.375C19.25 9.75368 19.7537 9.25 20.375 9.25C20.9963 9.25 21.5 8.74632 21.5 8.125C21.5 7.50368 22.0037 7 22.625 7H29.375Z" fill="white"/>
<path d="M14.75 12.625C14.75 12.0037 15.2537 11.5 15.875 11.5H17C17.6213 11.5 18.125 10.9963 18.125 10.375C18.125 9.75368 17.6213 9.25 17 9.25H15.875C14.011 9.25 12.5 10.761 12.5 12.625V39.625C12.5 41.489 14.011 43 15.875 43H36.125C37.989 43 39.5 41.489 39.5 39.625V12.625C39.5 10.761 37.989 9.25 36.125 9.25H35C34.3787 9.25 33.875 9.75368 33.875 10.375C33.875 10.9963 34.3787 11.5 35 11.5H36.125C36.7463 11.5 37.25 12.0037 37.25 12.625V39.625C37.25 40.2463 36.7463 40.75 36.125 40.75H15.875C15.2537 40.75 14.75 40.2463 14.75 39.625V12.625Z" fill="white"/>
<path d="M27.125 21.625C27.125 21.0037 26.6213 20.5 26 20.5C25.3787 20.5 24.875 21.0037 24.875 21.625V25H21.5C20.8787 25 20.375 25.5037 20.375 26.125C20.375 26.7463 20.8787 27.25 21.5 27.25H24.875V30.625C24.875 31.2463 25.3787 31.75 26 31.75C26.6213 31.75 27.125 31.2463 27.125 30.625V27.25H30.5C31.1213 27.25 31.625 26.7463 31.625 26.125C31.625 25.5037 31.1213 25 30.5 25H27.125V21.625Z" fill="white"/>
</svg>
