<svg width="340" height="340" viewBox="0 0 340 340" fill="none" xmlns="http://www.w3.org/2000/svg">
<path d="M63.75 95.6251C63.75 89.7571 68.507 85.0001 74.375 85.0001H201.875C207.743 85.0001 212.5 89.7571 212.5 95.6251C212.5 101.493 207.743 106.25 201.875 106.25H74.375C68.507 106.25 63.75 101.493 63.75 95.6251Z" fill="black"/>
<path d="M63.75 138.125C63.75 132.257 68.507 127.5 74.375 127.5H201.875C207.743 127.5 212.5 132.257 212.5 138.125C212.5 143.993 207.743 148.75 201.875 148.75H74.375C68.507 148.75 63.75 143.993 63.75 138.125Z" fill="black"/>
<path d="M63.75 180.625C63.75 174.757 68.507 170 74.375 170H201.875C207.743 170 212.5 174.757 212.5 180.625C212.5 186.493 207.743 191.25 201.875 191.25H74.375C68.507 191.25 63.75 186.493 63.75 180.625Z" fill="black"/>
<path d="M63.75 223.125C63.75 217.257 68.507 212.5 74.375 212.5H201.875C207.743 212.5 212.5 217.257 212.5 223.125C212.5 228.993 207.743 233.75 201.875 233.75H74.375C68.507 233.75 63.75 228.993 63.75 223.125Z" fill="black"/>
<path d="M63.75 265.625C63.75 259.757 68.507 255 74.375 255H201.875C207.743 255 212.5 259.757 212.5 265.625C212.5 271.493 207.743 276.25 201.875 276.25H74.375C68.507 276.25 63.75 271.493 63.75 265.625Z" fill="black"/>
<path d="M244.375 85.0001C238.507 85.0001 233.75 89.7571 233.75 95.6251C233.75 101.493 238.507 106.25 244.375 106.25H265.625C271.493 106.25 276.25 101.493 276.25 95.6251C276.25 89.7571 271.493 85.0001 265.625 85.0001H244.375Z" fill="black"/>
<path d="M244.375 127.5C238.507 127.5 233.75 132.257 233.75 138.125C233.75 143.993 238.507 148.75 244.375 148.75H265.625C271.493 148.75 276.25 143.993 276.25 138.125C276.25 132.257 271.493 127.5 265.625 127.5H244.375Z" fill="black"/>
<path d="M244.375 170C238.507 170 233.75 174.757 233.75 180.625C233.75 186.493 238.507 191.25 244.375 191.25H265.625C271.493 191.25 276.25 186.493 276.25 180.625C276.25 174.757 271.493 170 265.625 170H244.375Z" fill="black"/>
<path d="M244.375 212.5C238.507 212.5 233.75 217.257 233.75 223.125C233.75 228.993 238.507 233.75 244.375 233.75H265.625C271.493 233.75 276.25 228.993 276.25 223.125C276.25 217.257 271.493 212.5 265.625 212.5H244.375Z" fill="black"/>
<path d="M244.375 255C238.507 255 233.75 259.757 233.75 265.625C233.75 271.493 238.507 276.25 244.375 276.25H265.625C271.493 276.25 276.25 271.493 276.25 265.625C276.25 259.757 271.493 255 265.625 255H244.375Z" fill="black"/>
<path d="M50.013 13.7371C47.598 11.3221 44.1693 10.2152 40.7981 10.7623C37.4268 11.3094 34.5241 13.4437 32.9967 16.4985L22.3717 37.7485C21.634 39.2238 21.25 40.8507 21.25 42.5001V318.75H10.625C4.75697 318.75 0 323.507 0 329.375C0 335.243 4.75697 340 10.625 340H329.375C335.243 340 340 335.243 340 329.375C340 323.507 335.243 318.75 329.375 318.75H318.75V42.5001C318.75 40.8507 318.366 39.2238 317.628 37.7485L307.003 16.4985C305.476 13.4437 302.573 11.3094 299.202 10.7623C295.831 10.2152 292.402 11.3221 289.987 13.7371L276.25 27.4741L262.513 13.7371C258.364 9.5878 251.636 9.5878 247.487 13.7371L233.75 27.4741L220.013 13.7371C215.864 9.5878 209.136 9.5878 204.987 13.7371L191.25 27.4741L177.513 13.7371C173.364 9.5878 166.636 9.5878 162.487 13.7371L148.75 27.4741L135.013 13.7371C130.864 9.5878 124.136 9.5878 119.987 13.7371L106.25 27.4741L92.513 13.7371C88.3637 9.5878 81.6363 9.5878 77.487 13.7371L63.75 27.4741L50.013 13.7371ZM45.4107 39.1869L56.237 50.0131C60.3863 54.1625 67.1137 54.1625 71.263 50.0131L85 36.2761L98.737 50.0131C102.886 54.1625 109.614 54.1625 113.763 50.0131L127.5 36.2761L141.237 50.0131C145.386 54.1625 152.114 54.1625 156.263 50.0131L170 36.2761L183.737 50.0131C187.886 54.1625 194.614 54.1625 198.763 50.0131L212.5 36.2762L226.237 50.0131C230.386 54.1625 237.114 54.1625 241.263 50.0131L255 36.2762L268.737 50.0131C272.886 54.1625 279.614 54.1625 283.763 50.0131L294.589 39.1869L297.5 45.0083V318.75H42.5V45.0084L45.4107 39.1869Z" fill="black"/>
</svg>
