<svg width="34" height="34" viewBox="0 0 34 34" fill="none" xmlns="http://www.w3.org/2000/svg">
<path d="M24.9521 21.9808C26.6324 19.693 27.625 16.8687 27.625 13.8125C27.625 6.18407 21.4409 0 13.8125 0C6.18407 0 0 6.18407 0 13.8125C0 21.4409 6.18407 27.625 13.8125 27.625C16.8695 27.625 19.6945 26.6319 21.9826 24.9507L21.9808 24.9521C22.0434 25.0371 22.1132 25.1184 22.1902 25.1954L30.3724 33.3776C31.2023 34.2075 32.5477 34.2075 33.3776 33.3776C34.2075 32.5477 34.2075 31.2023 33.3776 30.3724L25.1954 22.1902C25.1184 22.1132 25.0371 22.0434 24.9521 21.9808ZM25.5 13.8125C25.5 20.2673 20.2673 25.5 13.8125 25.5C7.35767 25.5 2.125 20.2673 2.125 13.8125C2.125 7.35767 7.35767 2.125 13.8125 2.125C20.2673 2.125 25.5 7.35767 25.5 13.8125Z" fill="black"/>
</svg>
