<svg width="43" height="43" viewBox="0 0 43 43" fill="none" xmlns="http://www.w3.org/2000/svg">
<path d="M29.5625 16.125C29.5625 20.5778 25.9528 24.1875 21.5 24.1875C17.0472 24.1875 13.4375 20.5778 13.4375 16.125C13.4375 11.6722 17.0472 8.0625 21.5 8.0625C25.9528 8.0625 29.5625 11.6722 29.5625 16.125Z" fill="black"/>
<path fill-rule="evenodd" clip-rule="evenodd" d="M0 21.5C0 9.62588 9.62588 0 21.5 0C33.3741 0 43 9.62588 43 21.5C43 33.3741 33.3741 43 21.5 43C9.62588 43 0 33.3741 0 21.5ZM21.5 2.6875C11.1101 2.6875 2.6875 11.1101 2.6875 21.5C2.6875 25.9436 4.22813 30.0273 6.80437 33.2463C8.71537 30.1678 12.9125 26.875 21.5 26.875C30.0876 26.875 34.2846 30.1679 36.1956 33.2463C38.7719 30.0273 40.3125 25.9436 40.3125 21.5C40.3125 11.1101 31.8899 2.6875 21.5 2.6875Z" fill="black"/>
</svg>
