<svg width="34" height="34" viewBox="0 0 34 34" fill="none" xmlns="http://www.w3.org/2000/svg">
<path d="M19.8333 9.91671V7.08337H31.1666V9.91671H19.8333ZM19.8333 15.5834V12.75H31.1666V15.5834H19.8333ZM19.8333 21.25V18.4167H31.1666V21.25H19.8333ZM11.3333 19.8334C10.1527 19.8334 9.14922 19.4202 8.32284 18.5938C7.49645 17.7674 7.08325 16.7639 7.08325 15.5834C7.08325 14.4028 7.49645 13.3993 8.32284 12.573C9.14922 11.7466 10.1527 11.3334 11.3333 11.3334C12.5138 11.3334 13.5173 11.7466 14.3437 12.573C15.1701 13.3993 15.5833 14.4028 15.5833 15.5834C15.5833 16.7639 15.1701 17.7674 14.3437 18.5938C13.5173 19.4202 12.5138 19.8334 11.3333 19.8334ZM2.83325 28.3334V25.6417C2.83325 25.1459 2.95131 24.6737 3.18742 24.225C3.42353 23.7764 3.75409 23.4223 4.17909 23.1625C5.24159 22.525 6.36902 22.0469 7.56138 21.7282C8.75374 21.4094 10.011 21.25 11.3333 21.25C12.6555 21.25 13.9128 21.4094 15.1051 21.7282C16.2975 22.0469 17.4249 22.525 18.4874 23.1625C18.9124 23.4223 19.243 23.7764 19.4791 24.225C19.7152 24.6737 19.8333 25.1459 19.8333 25.6417V28.3334H2.83325Z" fill="white"/>
</svg>
