<svg width="34" height="34" viewBox="0 0 34 34" fill="none" xmlns="http://www.w3.org/2000/svg">
<path d="M7.08333 29.75C6.30417 29.75 5.63715 29.4726 5.08229 28.9177C4.52743 28.3628 4.25 27.6958 4.25 26.9167V7.08333C4.25 6.30417 4.52743 5.63715 5.08229 5.08229C5.63715 4.52743 6.30417 4.25 7.08333 4.25H26.9167C27.6958 4.25 28.3628 4.52743 28.9177 5.08229C29.4726 5.63715 29.75 6.30417 29.75 7.08333V10.625H26.9167V7.08333H7.08333V26.9167H26.9167V23.375H29.75V26.9167C29.75 27.6958 29.4726 28.3628 28.9177 28.9177C28.3628 29.4726 27.6958 29.75 26.9167 29.75H7.08333ZM18.4167 24.0833C17.6375 24.0833 16.9705 23.8059 16.4156 23.251C15.8608 22.6962 15.5833 22.0292 15.5833 21.25V12.75C15.5833 11.9708 15.8608 11.3038 16.4156 10.749C16.9705 10.1941 17.6375 9.91667 18.4167 9.91667H28.3333C29.1125 9.91667 29.7795 10.1941 30.3344 10.749C30.8892 11.3038 31.1667 11.9708 31.1667 12.75V21.25C31.1667 22.0292 30.8892 22.6962 30.3344 23.251C29.7795 23.8059 29.1125 24.0833 28.3333 24.0833H18.4167ZM28.3333 21.25V12.75H18.4167V21.25H28.3333ZM22.6667 19.125C23.2569 19.125 23.7587 18.9184 24.1719 18.5052C24.5851 18.092 24.7917 17.5903 24.7917 17C24.7917 16.4097 24.5851 15.908 24.1719 15.4948C23.7587 15.0816 23.2569 14.875 22.6667 14.875C22.0764 14.875 21.5747 15.0816 21.1615 15.4948C20.7483 15.908 20.5417 16.4097 20.5417 17C20.5417 17.5903 20.7483 18.092 21.1615 18.5052C21.5747 18.9184 22.0764 19.125 22.6667 19.125Z" fill="white"/>
</svg>
